# xmcd
#
# Track frame offsets:
#	150
#	15964
#	31365
#	57128
#	75223
#	91719
#	105897
#	121795
#	138975
#	153986
#	175445
#
# Disc length: 2761 seconds
#
# Revision: 1
# Processed by: cddbd v1.4PL0 Copyright (c) Steve Scherf et al.
# Submitted via: audiograbber 1.80.04
#
DISCID=6b0ac70b
DTITLE=Banshee - Long Awaited Day
DYEAR=2003
DGENRE=Celtic
TTITLE0=Over My Head
TTITLE1=Misty Moisty Morning
TTITLE2=Arthur Mcbride
TTITLE3=What I Am
TTITLE4=Long Awaited Day
TTITLE5=The Cracked Mirror
TTITLE6=Great Expectations
TTITLE7=Follow Me Up To Carlow
TTITLE8=Queen Of Argyll
TTITLE9=Roamer's Rave
TTITLE10=Sir Eglamore
EXTD=
EXTT0=
EXTT1=
EXTT2=
EXTT3=
EXTT4=
EXTT5=
EXTT6=
EXTT7=
EXTT8=
EXTT9=
EXTT10=
PLAYORDER=
